<?xml version="1.0" encoding="utf-8"?>
<!-- Generator: Adobe Illustrator 17.0.0, SVG Export Plug-In . SVG Version: 6.00 Build 0)  -->
<!DOCTYPE svg PUBLIC "-//W3C//DTD SVG 1.1//EN" "http://www.w3.org/Graphics/SVG/1.1/DTD/svg11.dtd">
<svg version="1.1" id="Layer_1" xmlns="http://www.w3.org/2000/svg" xmlns:xlink="http://www.w3.org/1999/xlink" x="0px" y="0px"
	 width="491.761px" height="95.955px" viewBox="0 0 491.761 95.955" enable-background="new 0 0 491.761 95.955"
	 xml:space="preserve">
<path fill="#231F20" d="M0.348,95.471c0.121-1.331-0.363-3.63,0.847-6.413c2.42,0.121,5.082-0.242,9.075-0.121
	c1.694-0.484,1.936-1.936,2.057-3.267l0.484-74.658c-0.847-0.968-0.363-2.42-3.025-2.662c-2.299-0.242-5.808-0.121-8.591,0
	C-0.74,7.26,0.227,4.719,0.348,2.662l45.981,0.605c0,0,22.869,0.847,24.079,26.257c1.21,26.378-28.436,31.703-28.436,31.703
	c-5.324,0.726-11.979,1.694-16.214,1.936c-0.847-0.121-0.968,0.484-1.21,0.726l0.363,22.749c0.363,1.089,0.726,1.573,2.42,2.178
	c4.477,0.726,7.26,0.363,9.68,0.363c0.968,1.573,0.484,4.961,0.605,6.292H0.348z M24.67,10.527v44.892
	c0,0.726,0.363,1.331,1.694,1.21c3.872,0.121,7.502-0.847,11.858-1.21c14.037-2.299,18.876-15.851,18.634-26.016
	c-0.242-8.591-2.904-22.748-26.862-21.175C27.332,8.349,24.791,9.438,24.67,10.527z"/>
<path fill="#231F20" d="M96.956,33.155c16.457-0.968,22.749,6.776,23.596,20.933c0.363,1.815,0.242,4.961,0.121,7.139
	c-7.502,1.21-23.475,1.21-40.536,2.541c0,0-0.242,25.168,20.207,25.895c3.146,0.121,8.349-1.815,13.794-5.082
	c2.42,0.847,3.509,2.904,3.388,4.477c-2.057,3.267-10.165,6.897-19.724,6.897c-16.94,0-28.557-10.164-29.646-27.709
	C66.827,46.465,79.169,34.244,96.956,33.155z M80.5,58.444c10.527-0.847,22.385-2.541,29.162-2.783
	c-1.089-14.521-7.26-17.788-15.004-17.545C85.22,38.479,80.138,52.515,80.5,58.444z"/>
<path fill="#231F20" d="M138.903,19.36c1.573,0.121,2.178,0.121,3.509,1.331l-0.363,13.068c0,1.331,0.242,1.089,1.815,1.21
	c7.502-0.363,11.011-1.089,16.214-0.726c0.363,1.452,0.242,1.452,0,3.509c-0.242,1.21-0.484,1.573-0.726,2.057
	c-2.42,0.121-10.89,1.089-17.303,0.847l0.121,40.294c0,0-0.363,8.107,7.139,8.107c3.509,0,6.897-3.267,8.833-4.598
	c1.21,0.847,2.299,2.541,2.42,3.146l-0.242,1.815c0,0-4.719,6.414-13.915,6.292c-15.488-0.121-15.488-13.794-15.488-13.794
	l-0.484-41.141c-4.235,0.121-6.171-0.121-8.591-0.121l-0.242-3.751c2.178-0.605,5.687-1.452,9.196-1.936
	c0.484-3.267,0-10.164,0.121-11.375C133.7,21.054,137.088,19.481,138.903,19.36z"/>
<path fill="#231F20" d="M183.156,31.944c0.726,0.242,3.146,2.42,3.388,3.509l-0.121,12.463c0,0,7.26-16.214,17.545-16.335
	c7.26-0.121,11.858,1.815,13.31,8.47c0.484,2.541-0.121,7.865-1.21,9.438c-2.299,3.993-8.47,2.904-10.043,0.484l-0.968-7.26
	c-0.484-2.178-1.815-3.267-3.388-3.267c-7.502,0.363-15.247,18.876-15.247,18.876v25.652c0.121,1.936,0.242,2.783,1.815,3.751
	c2.662,0,6.776,0.605,11.132,1.21c0.847,1.573,0.242,4.84,0.363,6.05c0,0-12.706-0.726-17.667-0.605
	c-4.114,0.121-16.819,0.605-16.819,0.605c-0.363-1.089-0.484-4.356,0.242-5.808l8.349-1.089c0.968,0.121,1.573-0.605,1.573-1.452
	V42.23c-0.242-1.331-0.121-2.542-1.573-3.146c-3.267,0.363-6.776,0.242-8.833,0.121c-0.242-1.089-0.242-4.114,0.242-5.324
	C173.475,33.518,179.162,32.187,183.156,31.944z"/>
<path fill="#231F20" d="M242.081,45.981l0.121,37.269c0.121,1.936,0.484,4.114,1.937,4.477l9.438,0.605
	c0.848,1.573,0.605,5.445,0.363,6.655c0,0-10.77-0.363-16.82-0.363c-3.025,0-17.061,0.363-17.061,0.363
	c-0.363-1.089-0.605-4.84,0.121-6.292l8.833-0.484c0.968,0.121,2.299-1.452,2.299-4.477l-0.121-40.293
	c-0.242-1.331,0.363-3.025-1.452-3.388c-3.267-0.605-6.897-0.242-8.954-0.363c-0.605-1.089-0.726-5.082,0.242-6.05
	c8.229-0.363,13.673-1.694,17.667-1.936c1.573,0.363,3.63,2.783,3.994,3.872L242.081,45.981z M229.376,15.367
	c0-3.267,3.751-6.171,7.019-6.171s6.534,2.904,6.534,6.171s-1.693,7.744-6.776,7.744C231.554,23.111,229.376,18.634,229.376,15.367z
	"/>
<path fill="#231F20" d="M282.099,31.582c16.457-0.968,23.232,6.655,22.991,12.342c0.121,4.477-0.727,6.776-1.452,7.865
	c-1.452,1.573-7.019,3.872-9.923-0.242l-1.21-9.075c-0.847-2.42-1.21-6.776-10.406-5.687c-6.05,0.726-14.762,5.445-15.851,26.983
	c0,0-3.025,26.137,19.723,26.137c6.776,0,13.189-5.082,15.73-6.292c2.42,0.726,3.146,2.904,3.389,4.114
	c-2.058,2.904-7.503,8.228-22.144,8.228c-16.94,0-27.83-10.164-28.92-27.709C252.696,46.465,264.312,32.67,282.099,31.582z"/>
<path fill="#231F20" d="M326.174,0c1.815,1.452,3.267,2.904,3.63,4.235v42.956c0,0,10.406-14.883,22.507-14.883
	c20.086,0,18.634,19.36,18.634,19.36l0.242,34.365c0.242,1.089,0.968,2.178,1.815,2.299c2.057,0,5.203,0.363,7.985,0.847
	c0.969,1.815,0.848,4.84,0.605,5.929c-3.872,0-13.068-0.363-15.004-0.363c-1.937,0-13.189,0.363-17.667,0.363
	c-0.362-1.21,0-5.929,0.969-6.171c2.178,0,7.139-0.242,8.349-0.484c0.605-0.484,1.452-1.452,1.573-3.146V53.725
	c0,0,1.089-13.552-9.681-13.552c-13.552,0-20.328,16.819-20.328,16.819l0.121,29.767c0.121,0.847,0.847,1.21,1.573,1.452
	c1.573,0.242,5.203,0.484,7.623,0.847c1.089,0.605,0.604,4.84,0.726,6.05c-3.872-0.121-12.1-0.726-15.488-0.605
	c-2.783,0-12.463,0.363-16.577,0.484c0.242-1.331-0.121-4.961,0.968-6.171c2.783-0.121,5.809-0.726,7.623-0.605
	c0.605-0.121,1.937-0.726,2.058-2.057l0.121-75.989c0-0.968,0.121-1.694-1.089-3.146c-2.662,0.363-6.897,0.242-8.954,0.121
	c-0.242-1.089-0.242-3.751,0.12-5.808C315.889,0.968,322.06,0.847,326.174,0z"/>
<path fill="#231F20" d="M409.867,33.155c16.457-0.968,29.283,7.986,30.372,29.524c0.847,16.577-9.196,33.275-29.524,33.275
	c-16.94,0-28.557-9.801-29.646-27.346C379.738,46.828,392.079,34.244,409.867,33.155z M393.41,67.761
	c0.847,11.374,6.534,22.99,17.062,22.87c12.342-0.121,17.666-11.011,17.303-26.742c-0.362-14.52-5.082-26.257-18.634-25.168
	C396.194,39.81,392.443,54.451,393.41,67.761z"/>
<path fill="#231F20" d="M457.469,31.944c0.727,0.242,3.146,2.42,3.388,3.509l-0.12,12.463c0,0,7.26-16.214,17.545-16.335
	c7.26-0.121,11.858,1.815,13.311,8.47c0.483,2.541-0.121,7.865-1.21,9.438c-2.3,3.993-8.471,2.904-10.044,0.484l-0.968-7.26
	c-0.483-2.178-1.814-3.267-3.388-3.267c-7.502,0.363-15.246,18.876-15.246,18.876v25.652c0.12,1.936,0.241,2.783,1.814,3.751
	c2.662,0,6.776,0.605,11.133,1.21c0.847,1.573,0.241,4.84,0.362,6.05c0,0-12.705-0.726-17.666-0.605
	c-4.114,0.121-16.819,0.605-16.819,0.605c-0.363-1.089-0.484-4.356,0.242-5.808l8.349-1.089c0.969,0.121,1.573-0.605,1.573-1.452
	V42.23c-0.242-1.331-0.121-2.542-1.573-3.146c-3.267,0.363-6.775,0.242-8.833,0.121c-0.242-1.089-0.242-4.114,0.242-5.324
	C447.789,33.518,453.476,32.187,457.469,31.944z"/>
</svg>
